<svg width="114" height="114" viewBox="0 0 114 114" fill="none" xmlns="http://www.w3.org/2000/svg">
<path d="M21.8327 82.1151C22.833 81.7244 23.7679 81.5674 24.6376 81.6441C25.5073 81.7208 26.2627 81.9968 26.9038 82.4723C27.545 82.9478 28.0235 83.5899 28.3394 84.3988C28.6553 85.2077 28.7387 86.0042 28.5895 86.7883C28.4402 87.5725 28.0719 88.2874 27.4844 88.9332C26.8968 89.579 26.1029 90.0972 25.1026 90.4878C24.1023 90.8785 23.1674 91.0355 22.2977 90.9588C21.428 90.8822 20.6726 90.6061 20.0315 90.1306C19.3903 89.6552 18.9118 89.013 18.5959 88.2041C18.28 87.3953 18.1966 86.5987 18.3458 85.8146C18.495 85.0305 18.8634 84.3155 19.4509 83.6697C20.0385 83.024 20.8324 82.5058 21.8327 82.1151ZM22.2667 83.2265C21.4455 83.5473 20.8061 83.9553 20.3484 84.4507C19.8895 84.9431 19.606 85.479 19.4979 86.0585C19.3885 86.635 19.446 87.2103 19.6703 87.7845C19.8945 88.3588 20.2428 88.8223 20.7151 89.1751C21.1861 89.5249 21.7578 89.7268 22.4301 89.781C23.1012 89.832 23.8473 89.6971 24.6686 89.3764C25.4898 89.0557 26.1298 88.6492 26.5887 88.1568C27.0464 87.6614 27.3299 87.1255 27.4392 86.5491C27.5474 85.9695 27.4893 85.3927 27.265 84.8184C27.0408 84.2442 26.6931 83.7822 26.222 83.4324C25.7498 83.0796 25.1781 82.8776 24.507 82.8266C23.8347 82.7725 23.088 82.9058 22.2667 83.2265Z" fill="#26CDAF"/>
<path d="M21.5425 71.0854L11.3747 71.619L11.1944 68.1834C11.1527 67.389 11.2542 66.7299 11.4989 66.2059C11.7402 65.6821 12.0894 65.2854 12.5466 65.0158C13.0037 64.7462 13.5319 64.5957 14.1309 64.5643C14.73 64.5329 15.2677 64.6274 15.7439 64.8481C16.2201 65.0687 16.6039 65.4252 16.8953 65.9177C17.1833 66.4104 17.348 67.0506 17.3894 67.8384L17.5353 70.6186L16.4232 70.677L16.2793 67.9365C16.2509 67.3936 16.1485 66.9609 15.9723 66.6383C15.7958 66.3123 15.5581 66.0825 15.259 65.9488C14.9564 65.812 14.6016 65.7543 14.1945 65.7757C13.7874 65.7971 13.4356 65.8919 13.1391 66.0601C12.8425 66.2283 12.6203 66.4839 12.4724 66.8269C12.3211 67.17 12.2599 67.6163 12.2887 68.1658L12.4023 70.3304L21.4779 69.8542L21.5425 71.0854ZM16.7238 66.5391L21.16 63.7972L21.2351 65.227L16.7967 67.9292L16.7238 66.5391Z" fill="#26CDAF"/>
<path d="M19.8436 54.6777L9.96285 52.22L11.4461 46.2568L12.5075 46.5208L11.3219 51.2875L14.6605 52.1179L15.7693 47.66L16.8307 47.924L15.7219 52.382L19.0798 53.2172L20.2846 48.3733L21.346 48.6373L19.8436 54.6777ZM9.56894 49.5195L7.62314 47.7855L7.95434 46.4539L9.81855 48.516L9.56894 49.5195Z" fill="#26CDAF"/>
<path d="M21.1006 31.7022C20.7603 31.6117 20.4302 31.5694 20.1103 31.5752C19.7895 31.5765 19.4831 31.6286 19.1911 31.7315C18.9009 31.8316 18.6303 31.9839 18.3791 32.1884C18.1279 32.3929 17.9022 32.6494 17.702 32.958C17.3736 33.4641 17.2058 34.009 17.1983 34.5929C17.1909 35.1768 17.3622 35.7561 17.7123 36.3309C18.0624 36.9057 18.6072 37.433 19.3468 37.9129C20.0864 38.3928 20.7909 38.674 21.4603 38.7567C22.1296 38.8394 22.7321 38.7542 23.2677 38.5011C23.8032 38.248 24.2424 37.8574 24.5851 37.3291C24.9026 36.8397 25.078 36.3411 25.1112 35.8332C25.1434 35.3208 25.0353 34.8358 24.7869 34.3783C24.5375 33.9163 24.1515 33.5156 23.6288 33.1765L23.9011 32.9028L22.2343 35.472L21.3167 34.8766L23.4274 31.6235L24.3449 32.2188C25.0484 32.6752 25.5627 33.2223 25.8878 33.8599C26.2147 34.4947 26.3509 35.1678 26.2963 35.8791C26.2408 36.5859 25.9929 37.2784 25.5527 37.9569C25.0621 38.7132 24.453 39.2622 23.7255 39.6041C22.9997 39.9432 22.2051 40.0597 21.3414 39.9537C20.4796 39.845 19.5982 39.4983 18.6974 38.9139C18.0217 38.4755 17.4728 37.991 17.0507 37.4603C16.6275 36.925 16.3338 36.3669 16.1693 35.7861C16.0049 35.2053 15.9691 34.6211 16.062 34.0334C16.1548 33.4457 16.379 32.878 16.7344 32.3303C17.0266 31.8798 17.3671 31.5042 17.7559 31.2033C18.1437 30.8979 18.5606 30.6725 19.0065 30.5272C19.4514 30.3773 19.9116 30.3104 20.3871 30.3266C20.8598 30.3409 21.3286 30.4435 21.7934 30.6345L21.1006 31.7022Z" fill="#26CDAF"/>
<path d="M33.6988 28.0277L32.6899 28.8358L29.2424 18.5517L30.2358 17.7561L39.5191 23.3655L38.5103 24.1736L30.7772 19.3862L30.7151 19.436L33.6988 28.0277ZM31.5848 24.6251L35.6513 21.3678L36.3351 22.2215L32.2686 25.4788L31.5848 24.6251Z" fill="#26CDAF"/>
<path d="M50.161 9.3138L53.7044 18.8592L52.5858 19.2744L44.6022 13.7107L44.509 13.7453L47.2911 21.2399L46.1352 21.669L42.5918 12.1236L43.7104 11.7084L51.7196 17.2838L51.8128 17.2492L49.0238 9.73597L50.161 9.3138Z" fill="#26CDAF"/>
<path d="M70.5748 14.9349C70.6003 16.0085 70.4284 16.9409 70.0593 17.732C69.6901 18.5232 69.1726 19.1389 68.5067 19.579C67.8408 20.0191 67.0738 20.2495 66.2057 20.2701C65.3375 20.2907 64.5605 20.0969 63.8745 19.6888C63.1885 19.2807 62.6424 18.6902 62.2362 17.9174C61.83 17.1447 61.6141 16.2215 61.5887 15.1479C61.5632 14.0744 61.7351 13.142 62.1042 12.3508C62.4734 11.5597 62.9909 10.944 63.6568 10.5039C64.3227 10.0637 65.0897 9.83336 65.9578 9.81278C66.826 9.79221 67.603 9.98597 68.289 10.3941C68.975 10.8022 69.5211 11.3926 69.9273 12.1654C70.3335 12.9382 70.5494 13.8614 70.5748 14.9349ZM69.382 14.9632C69.3611 14.0818 69.196 13.3415 68.8867 12.7421C68.5808 12.1426 68.1739 11.6931 67.6662 11.3935C67.1618 11.0938 66.6015 10.9513 65.9852 10.9659C65.3688 10.9805 64.8142 11.1494 64.3213 11.4728C63.8316 11.796 63.4465 12.2643 63.166 12.8777C62.8888 13.4909 62.7607 14.2383 62.7815 15.1196C62.8024 16.001 62.9659 16.7414 63.2718 17.3409C63.5811 17.9403 63.9879 18.3898 64.4923 18.6895C65 18.9891 65.562 19.1316 66.1783 19.117C66.7946 19.1024 67.3476 18.9335 67.8373 18.6102C68.3302 18.2869 68.7153 17.8186 68.9925 17.2053C69.273 16.592 69.4028 15.8446 69.382 14.9632Z" fill="#26CDAF"/>
<path d="M96.5238 33.4345C96.9504 33.16 97.1958 32.771 97.2599 32.2676C97.3241 31.7643 97.221 31.2356 96.9506 30.6816C96.7529 30.2765 96.5144 29.954 96.2351 29.7141C95.9572 29.4772 95.6622 29.3298 95.35 29.272C95.0392 29.2171 94.7379 29.2609 94.446 29.4033C94.2017 29.5225 94.0201 29.6831 93.901 29.885C93.7864 30.0885 93.7161 30.3109 93.69 30.5522C93.667 30.7922 93.6676 31.0316 93.692 31.2704C93.7193 31.5079 93.7521 31.7224 93.7903 31.914L93.9936 32.9654C94.0473 33.2342 94.0903 33.5415 94.1225 33.8872C94.1562 34.2358 94.1432 34.5907 94.0834 34.9518C94.028 35.3145 93.8957 35.6556 93.6866 35.9752C93.4775 36.2949 93.1584 36.5594 92.7295 36.7687C92.2351 37.01 91.725 37.0984 91.1994 37.0341C90.6753 36.9727 90.1749 36.7522 89.6983 36.3725C89.2232 35.9959 88.8141 35.4561 88.471 34.7531C88.1512 34.0978 87.9801 33.4788 87.9575 32.896C87.9365 32.3162 88.0482 31.797 88.2928 31.3384C88.5388 30.8827 88.9033 30.5149 89.3862 30.235L89.9444 31.3788C89.6134 31.5772 89.3842 31.8329 89.2566 32.1459C89.1335 32.4605 89.0932 32.801 89.1356 33.1675C89.1824 33.5356 89.2945 33.9013 89.4719 34.2647C89.6783 34.6877 89.9321 35.034 90.2334 35.3038C90.5376 35.572 90.8613 35.7442 91.2045 35.8201C91.5506 35.8946 91.8905 35.8504 92.2241 35.6876C92.5279 35.5394 92.7337 35.3338 92.8415 35.071C92.9493 34.8082 92.9952 34.5092 92.9791 34.1741C92.9631 33.8389 92.9213 33.4887 92.8536 33.1234L92.6259 31.8405C92.4826 31.0253 92.4998 30.3162 92.6776 29.7131C92.8553 29.11 93.2525 28.6581 93.8691 28.3572C94.3814 28.1072 94.8958 28.0276 95.4123 28.1186C95.9331 28.2111 96.4142 28.441 96.8553 28.8085C97.3009 29.1774 97.6661 29.6538 97.951 30.2376C98.2388 30.8274 98.3889 31.4032 98.4013 31.9652C98.4166 32.5256 98.308 33.0286 98.0754 33.474C97.8443 33.9224 97.5015 34.2667 97.0471 34.5068L96.5238 33.4345Z" fill="#26CDAF"/>
<path d="M101.577 45.054L102.655 44.8694L103.944 52.3961L102.866 52.5808L102.326 49.425L93.368 50.9593L93.1598 49.744L102.117 48.2098L101.577 45.054Z" fill="#26CDAF"/>
<path d="M102.196 72.0374L102.04 73.2605L95.3527 72.4095C94.6622 72.3216 94.0665 72.0804 93.5654 71.6859C93.0672 71.2951 92.6994 70.7855 92.4619 70.1572C92.2277 69.5294 92.1611 68.8193 92.2619 68.0269C92.3627 67.2345 92.6051 66.5637 92.9891 66.0145C93.3763 65.4657 93.8603 65.0629 94.4409 64.806C95.0244 64.5528 95.6614 64.4702 96.3518 64.5581L103.039 65.4091L102.884 66.6322L96.2948 65.7937C95.8016 65.7309 95.3489 65.7836 94.9366 65.9516C94.5276 66.1201 94.1874 66.3909 93.9161 66.764C93.6476 67.1407 93.4776 67.6103 93.4061 68.1725C93.3345 68.7347 93.3815 69.2318 93.5471 69.6639C93.7159 70.0963 93.9774 70.4436 94.3316 70.7059C94.6887 70.9718 95.1138 71.1362 95.607 71.199L102.196 72.0374Z" fill="#26CDAF"/>
<path d="M87.469 81.9053L89.1413 79.2452L97.7613 84.6641L96.015 87.442C95.4893 88.2782 94.867 88.8853 94.1479 89.2632C93.4316 89.6428 92.6525 89.7893 91.8106 89.7024C90.9715 89.6173 90.1058 89.2943 89.2135 88.7333C88.3155 88.1689 87.643 87.523 87.1959 86.7956C86.7516 86.07 86.5478 85.292 86.5844 84.4615C86.6238 83.6329 86.9187 82.7808 87.469 81.9053ZM89.411 80.8712L88.4373 82.4201C87.9893 83.1328 87.7555 83.8099 87.7359 84.4514C87.7163 85.0928 87.8881 85.6883 88.2514 86.2376C88.6146 86.787 89.147 87.2822 89.8485 87.7232C90.5444 88.1606 91.2149 88.4236 91.8601 88.512C92.508 88.6023 93.1087 88.5062 93.6621 88.2237C94.2182 87.9431 94.708 87.466 95.1314 86.7926L96.1791 85.1258L89.411 80.8712Z" fill="#26CDAF"/>
<path d="M81.459 99.0771L75.65 90.715L76.6626 90.0116L82.4716 98.3736L81.459 99.0771Z" fill="#26CDAF"/>
<path d="M59.6252 101.77C59.048 100.864 58.7127 99.9772 58.6193 99.1092C58.5259 98.2412 58.6503 97.4466 58.9924 96.7254C59.3346 96.0043 59.8718 95.4103 60.6041 94.9436C61.3363 94.4768 62.1016 94.2407 62.8998 94.235C63.698 94.2293 64.4708 94.4521 65.2182 94.9033C65.9656 95.3545 66.6279 96.0329 67.2051 96.9384C67.7823 97.844 68.1176 98.7308 68.211 99.5988C68.3044 100.467 68.18 101.261 67.8379 101.983C67.4957 102.704 66.9585 103.298 66.2262 103.764C65.4939 104.231 64.7287 104.467 63.9305 104.473C63.1323 104.479 62.3595 104.256 61.6121 103.805C60.8647 103.354 60.2024 102.675 59.6252 101.77ZM60.6314 101.128C61.1052 101.872 61.6295 102.42 62.2043 102.773C62.7762 103.128 63.357 103.302 63.9464 103.296C64.5331 103.291 65.0864 103.123 65.6063 102.792C66.1261 102.46 66.5134 102.029 66.768 101.497C67.0197 100.967 67.107 100.367 67.0298 99.6973C66.9497 99.029 66.6728 98.3232 66.1989 97.5797C65.7251 96.8363 65.2022 96.2872 64.6302 95.9325C64.0554 95.5795 63.4747 95.4053 62.888 95.4098C62.2985 95.4161 61.7439 95.5849 61.224 95.9162C60.7041 96.2476 60.3183 96.6782 60.0665 97.2081C59.8119 97.7399 59.7247 98.3398 59.8047 99.0081C59.882 99.6781 60.1575 100.385 60.6314 101.128Z" fill="#26CDAF"/>
<path fill-rule="evenodd" clip-rule="evenodd" d="M57 113C87.9279 113 113 87.9279 113 57C113 26.0721 87.9279 1 57 1C26.0721 1 1 26.0721 1 57C1 87.9279 26.0721 113 57 113ZM57 114C88.4802 114 114 88.4802 114 57C114 25.5198 88.4802 0 57 0C25.5198 0 0 25.5198 0 57C0 88.4802 25.5198 114 57 114Z" fill="#26CDAF"/>
<path fill-rule="evenodd" clip-rule="evenodd" d="M57 88C74.1208 88 88 74.1208 88 57C88 39.8792 74.1208 26 57 26C39.8792 26 26 39.8792 26 57C26 74.1208 39.8792 88 57 88ZM57 89C74.6731 89 89 74.6731 89 57C89 39.3269 74.6731 25 57 25C39.3269 25 25 39.3269 25 57C25 74.6731 39.3269 89 57 89Z" fill="#26CDAF"/>
<path d="M48.8158 51.5696C45.0614 55.324 45.0614 61.4299 48.8158 65.1842C50.6998 67.0683 53.1614 68.0034 55.6231 68.0034C58.0847 68.0034 60.5463 67.0683 62.4304 65.1842C67.2161 60.3985 68 46 68 46C68 46 53.6015 46.7839 48.8158 51.5696ZM60.4913 63.2452C59.1849 64.5379 57.4659 65.253 55.6231 65.253C54.3991 65.253 53.244 64.9092 52.2125 64.3179C53.4777 60.3572 55.8156 56.8779 58.9236 54.2513C55.3068 56.1216 52.2675 59.0095 50.1635 62.5026C48.1281 59.8072 48.3069 55.9703 50.7686 53.5087C53.1614 51.1158 59.8037 49.6443 64.9745 49.0255C64.3557 54.1963 62.8842 60.8386 60.4913 63.2452Z" fill="#26CDAF"/>
</svg>
